<svg width="16" height="16" viewBox="0 0 16 16" fill="none" xmlns="http://www.w3.org/2000/svg">
<path d="M1.5 5.5H14.5M1.5 6H14.5M3.5 9.5H7.5M3.5 11H5.5M3 13H13C13.3978 13 13.7794 12.842 14.0607 12.5607C14.342 12.2794 14.5 11.8978 14.5 11.5V4.5C14.5 4.10218 14.342 3.72064 14.0607 3.43934C13.7794 3.15804 13.3978 3 13 3H3C2.60218 3 2.22064 3.15804 1.93934 3.43934C1.65804 3.72064 1.5 4.10218 1.5 4.5V11.5C1.5 11.8978 1.65804 12.2794 1.93934 12.5607C2.22064 12.842 2.60218 13 3 13Z" stroke="#FFFBFB" stroke-linecap="round" stroke-linejoin="round"/>
</svg>
