<svg width="16" height="16" viewBox="0 0 16 16" fill="none" xmlns="http://www.w3.org/2000/svg">
<path d="M1.5 8.50667C1.5 9.57334 2.24867 10.5027 3.30467 10.658C4.02933 10.7647 4.76133 10.8467 5.5 10.904V14L8.21733 11.2827C8.40162 11.0996 8.64897 10.9939 8.90867 10.9873C10.1763 10.9522 11.4407 10.8423 12.6953 10.658C13.7513 10.5027 14.5 9.574 14.5 8.506V4.494C14.5 3.426 13.7513 2.49733 12.6953 2.342C11.1406 2.11381 9.57135 1.99951 8 2C6.40533 2 4.83733 2.11667 3.30467 2.342C2.24867 2.49733 1.5 3.42667 1.5 4.494V8.506V8.50667Z" stroke="white" stroke-linecap="round" stroke-linejoin="round"/>
</svg>
