<svg width="16" height="16" viewBox="0 0 16 16" fill="none" xmlns="http://www.w3.org/2000/svg">
<path d="M7.33301 11.3337L8.66634 12.667C8.79766 12.7983 8.95356 12.9025 9.12515 12.9736C9.29673 13.0446 9.48062 13.0812 9.66634 13.0812C9.85206 13.0812 10.036 13.0446 10.2075 12.9736C10.3791 12.9025 10.535 12.7983 10.6663 12.667C10.7977 12.5357 10.9018 12.3798 10.9729 12.2082C11.044 12.0366 11.0806 11.8527 11.0806 11.667C11.0806 11.4813 11.044 11.2974 10.9729 11.1258C10.9018 10.9542 10.7977 10.7983 10.6663 10.667M9.33301 9.33367L10.9997 11.0003C11.2649 11.2656 11.6246 11.4145 11.9997 11.4145C12.3747 11.4145 12.7345 11.2656 12.9997 11.0003C13.2649 10.7351 13.4139 10.3754 13.4139 10.0003C13.4139 9.62526 13.2649 9.26555 12.9997 9.00034L10.413 6.41367C10.038 6.03913 9.52968 5.82876 8.99967 5.82876C8.46967 5.82876 7.96134 6.03913 7.58634 6.41367L6.99967 7.00034C6.73446 7.26555 6.37475 7.41455 5.99967 7.41455C5.6246 7.41455 5.26489 7.26555 4.99967 7.00034C4.73446 6.73512 4.58546 6.37541 4.58546 6.00034C4.58546 5.62526 4.73446 5.26555 4.99967 5.00034L6.87301 3.127C7.48117 2.52043 8.27427 2.13404 9.12677 2.02898C9.97927 1.92393 10.8425 2.10622 11.5797 2.547L11.893 2.73367C12.1769 2.90499 12.5144 2.96441 12.8397 2.90034L13.9997 2.667M13.9997 2.00034L14.6663 9.33367H13.333M1.99967 2.00034L1.33301 9.33367L5.66634 13.667C5.93156 13.9322 6.29127 14.0812 6.66634 14.0812C7.04141 14.0812 7.40112 13.9322 7.66634 13.667C7.93156 13.4018 8.08056 13.0421 8.08056 12.667C8.08056 12.2919 7.93156 11.9322 7.66634 11.667M1.99967 2.667H7.33301" stroke="white" stroke-linecap="round" stroke-linejoin="round"/>
</svg>
