<svg width="16" height="16" viewBox="0 0 16 16" fill="none" xmlns="http://www.w3.org/2000/svg">
<path d="M9.99969 12.752C10.5683 12.9171 11.1576 13.0006 11.7497 13C12.702 13.0014 13.6418 12.7843 14.497 12.3653C14.5223 11.7678 14.3521 11.1783 14.0122 10.6862C13.6723 10.1941 13.1813 9.82624 12.6135 9.63834C12.0457 9.45043 11.4321 9.45275 10.8658 9.64493C10.2995 9.83711 9.81119 10.2087 9.47502 10.7033M9.99969 12.752V12.75C9.99969 12.008 9.80902 11.31 9.47502 10.7033M9.99969 12.752V12.8227C8.71668 13.5954 7.24676 14.0025 5.74902 14C4.19502 14 2.74102 13.57 1.49969 12.8227L1.49902 12.75C1.49851 11.8063 1.8121 10.8893 2.39035 10.1435C2.96859 9.39773 3.77861 8.86562 4.69268 8.63107C5.60676 8.39651 6.57291 8.47285 7.4388 8.84806C8.30469 9.22327 9.02108 9.87599 9.47502 10.7033M7.99969 4.25C7.99969 4.84674 7.76264 5.41903 7.34068 5.84099C6.91872 6.26295 6.34643 6.5 5.74969 6.5C5.15295 6.5 4.58066 6.26295 4.1587 5.84099C3.73674 5.41903 3.49969 4.84674 3.49969 4.25C3.49969 3.65326 3.73674 3.08097 4.1587 2.65901C4.58066 2.23705 5.15295 2 5.74969 2C6.34643 2 6.91872 2.23705 7.34068 2.65901C7.76264 3.08097 7.99969 3.65326 7.99969 4.25ZM13.4997 5.75C13.4997 6.21413 13.3153 6.65925 12.9871 6.98744C12.6589 7.31563 12.2138 7.5 11.7497 7.5C11.2856 7.5 10.8404 7.31563 10.5123 6.98744C10.1841 6.65925 9.99969 6.21413 9.99969 5.75C9.99969 5.28587 10.1841 4.84075 10.5123 4.51256C10.8404 4.18437 11.2856 4 11.7497 4C12.2138 4 12.6589 4.18437 12.9871 4.51256C13.3153 4.84075 13.4997 5.28587 13.4997 5.75Z" stroke="white" stroke-linecap="round" stroke-linejoin="round"/>
</svg>
