<svg width="16" height="16" viewBox="0 0 16 16" fill="none" xmlns="http://www.w3.org/2000/svg">
<path d="M7 4C6.0111 4 5.0444 4.29324 4.22215 4.84265C3.39991 5.39206 2.75904 6.17295 2.3806 7.08658C2.00217 8.00021 1.90315 9.00555 2.09608 9.97545C2.289 10.9454 2.76521 11.8363 3.46447 12.5355C4.16373 13.2348 5.05465 13.711 6.02455 13.9039C6.99446 14.0969 7.99979 13.9978 8.91342 13.6194C9.82705 13.241 10.6079 12.6001 11.1574 11.7779C11.7068 10.9556 12 9.98891 12 9H7V4Z" stroke="white" stroke-linecap="round" stroke-linejoin="round"/>
<path d="M9 7H14C14 5.67392 13.4732 4.40215 12.5355 3.46447C11.5979 2.52678 10.3261 2 9 2V7Z" stroke="white" stroke-linecap="round" stroke-linejoin="round"/>
</svg>
