<svg width="16" height="16" viewBox="0 0 16 16" fill="none" xmlns="http://www.w3.org/2000/svg">
<path d="M14.4997 4.49969C14.4997 4.91525 14.4134 5.3263 14.2463 5.70676C14.0791 6.08722 13.8347 6.4288 13.5286 6.70985C13.2225 6.99089 12.8613 7.20528 12.468 7.33941C12.0746 7.47353 11.6577 7.52448 11.2437 7.48902C10.5264 7.42835 9.73435 7.53635 9.27702 8.09169L4.50902 13.881C4.35862 14.0644 4.17149 14.2142 3.95969 14.3208C3.74788 14.4275 3.51609 14.4886 3.27924 14.5003C3.04239 14.5119 2.80572 14.4738 2.58447 14.3885C2.36322 14.3032 2.16228 14.1725 1.9946 14.0048C1.82692 13.8371 1.6962 13.6362 1.61087 13.4149C1.52553 13.1937 1.48747 12.957 1.49912 12.7201C1.51078 12.4833 1.5719 12.2515 1.67855 12.0397C1.7852 11.8279 1.93502 11.6408 2.11835 11.4904L7.90769 6.72235C8.46302 6.26502 8.57102 5.47302 8.51035 4.75569C8.4656 4.23447 8.55792 3.71061 8.77815 3.23608C8.99838 2.76156 9.33886 2.35288 9.76582 2.05059C10.1928 1.74829 10.6914 1.5629 11.2121 1.51281C11.7328 1.46272 12.2576 1.54966 12.7344 1.76502L10.5504 3.94902C10.6348 4.31442 10.8202 4.64875 11.0854 4.91394C11.3506 5.17913 11.685 5.36453 12.0504 5.44902L14.2344 3.26502C14.405 3.64169 14.4997 4.05969 14.4997 4.49969Z" stroke="white" stroke-linecap="round" stroke-linejoin="round"/>
</svg>
