<svg width="14" height="12" viewBox="0 0 14 12" fill="none" xmlns="http://www.w3.org/2000/svg">
<path d="M5.22703 11.0858L0.164532 6.02328C0.112233 5.97104 0.0707433 5.909 0.0424359 5.84072C0.0141285 5.77243 -0.000440847 5.69923 -0.000440843 5.62531C-0.00044084 5.55139 0.0141285 5.47819 0.0424359 5.40991C0.0707433 5.34162 0.112233 5.27958 0.164532 5.22734L5.22703 0.164844C5.33258 0.0592958 5.47573 -3.50752e-07 5.625 -3.44227e-07C5.77427 -3.37702e-07 5.91742 0.0592958 6.02297 0.164844C6.12852 0.270392 6.18781 0.413545 6.18781 0.562812C6.18781 0.71208 6.12852 0.855233 6.02297 0.960781L1.92024 5.06281L12.9375 5.06281C13.0867 5.06281 13.2298 5.12208 13.3352 5.22757C13.4407 5.33305 13.5 5.47613 13.5 5.62531C13.5 5.7745 13.4407 5.91757 13.3352 6.02306C13.2298 6.12855 13.0867 6.18781 12.9375 6.18781L1.92024 6.18781L6.02297 10.2898C6.12852 10.3954 6.18781 10.5385 6.18781 10.6878C6.18781 10.8371 6.12852 10.9802 6.02297 11.0858C5.91742 11.1913 5.77427 11.2506 5.625 11.2506C5.47573 11.2506 5.33258 11.1913 5.22703 11.0858Z" fill="white"/>
</svg>
