<svg width="18" height="18" viewBox="0 0 18 18" fill="none" xmlns="http://www.w3.org/2000/svg">
<path d="M14.4608 10.523L9.39828 15.5855C9.34604 15.6378 9.284 15.6793 9.21572 15.7076C9.14743 15.7359 9.07423 15.7504 9.00031 15.7504C8.92639 15.7504 8.8532 15.7359 8.78491 15.7076C8.71662 15.6793 8.65458 15.6378 8.60234 15.5855L3.53984 10.523C3.4343 10.4174 3.375 10.2743 3.375 10.125C3.375 9.97573 3.4343 9.83258 3.53984 9.72703C3.64539 9.62148 3.78855 9.56219 3.93781 9.56219C4.08708 9.56219 4.23023 9.62148 4.33578 9.72703L8.43781 13.8298V2.8125C8.43781 2.66332 8.49708 2.52024 8.60257 2.41475C8.70805 2.30926 8.85113 2.25 9.00031 2.25C9.1495 2.25 9.29257 2.30926 9.39806 2.41475C9.50355 2.52024 9.56281 2.66332 9.56281 2.8125V13.8298L13.6648 9.72703C13.7704 9.62148 13.9135 9.56219 14.0628 9.56219C14.2121 9.56219 14.3552 9.62148 14.4608 9.72703C14.5663 9.83258 14.6256 9.97573 14.6256 10.125C14.6256 10.2743 14.5663 10.4174 14.4608 10.523Z" fill="white"/>
</svg>
