<svg width="24" height="24" viewBox="0 0 24 24" fill="none" xmlns="http://www.w3.org/2000/svg">
<path d="M17.9375 5H8.9375C8.78832 5 8.64524 5.05926 8.53975 5.16475C8.43426 5.27024 8.375 5.41332 8.375 5.5625V8.375H5.5625C5.41332 8.375 5.27024 8.43426 5.16475 8.53975C5.05926 8.64524 5 8.78832 5 8.9375V17.9375C5 18.0867 5.05926 18.2298 5.16475 18.3352C5.27024 18.4407 5.41332 18.5 5.5625 18.5H14.5625C14.7117 18.5 14.8548 18.4407 14.9602 18.3352C15.0657 18.2298 15.125 18.0867 15.125 17.9375V15.125H17.9375C18.0867 15.125 18.2298 15.0657 18.3352 14.9602C18.4407 14.8548 18.5 14.7117 18.5 14.5625V5.5625C18.5 5.41332 18.4407 5.27024 18.3352 5.16475C18.2298 5.05926 18.0867 5 17.9375 5ZM14 17.375H6.125V9.5H14V17.375ZM17.375 14H15.125V8.9375C15.125 8.78832 15.0657 8.64524 14.9602 8.53975C14.8548 8.43426 14.7117 8.375 14.5625 8.375H9.5V6.125H17.375V14Z" fill="white"/>
</svg>
