<svg width="16" height="16" viewBox="0 0 16 16" fill="none" xmlns="http://www.w3.org/2000/svg">
<g clip-path="url(#clip0_4033_1226)">
<path d="M15.8942 6.7439L14.2992 3.55265C14.2405 3.43519 14.1591 3.33046 14.0599 3.24443C13.9607 3.1584 13.8454 3.09276 13.7208 3.05127C13.5962 3.00977 13.4647 2.99322 13.3337 3.00258C13.2027 3.01193 13.0748 3.047 12.9573 3.10577L11.403 3.88265L8.12859 3.0164C8.04457 2.99453 7.95635 2.99453 7.87234 3.0164L4.59796 3.88265L3.04359 3.10577C2.92614 3.047 2.79826 3.01193 2.66726 3.00258C2.53626 2.99322 2.40469 3.00977 2.28009 3.05127C2.15548 3.09276 2.04027 3.1584 1.94103 3.24443C1.84179 3.33046 1.76047 3.43519 1.70171 3.55265L0.106711 6.74327C0.0479335 6.86072 0.0128674 6.9886 0.00351517 7.1196C-0.00583703 7.2506 0.0107079 7.38216 0.052205 7.50677C0.0937021 7.63138 0.159339 7.74659 0.245366 7.84583C0.331394 7.94507 0.436128 8.02639 0.553586 8.08515L2.24109 8.92952L5.70921 11.4064C5.76031 11.4428 5.81776 11.4693 5.87859 11.4845L9.87859 12.4845C9.96236 12.5055 10.0501 12.5045 10.1334 12.4815C10.2166 12.4585 10.2925 12.4143 10.3536 12.3533L13.7955 8.91077L15.4467 8.08515C15.6838 7.96648 15.864 7.75854 15.9478 7.50703C16.0316 7.25552 16.0121 6.98103 15.8936 6.7439H15.8942ZM12.4636 8.82952L10.313 7.10702C10.2166 7.02986 10.0951 6.99107 9.9719 6.99811C9.84867 7.00515 9.7324 7.05752 9.64546 7.14515C8.53234 8.2664 7.29171 8.12452 6.50046 7.62452L9.20296 4.99952H11.1911L12.8917 8.40015L12.4636 8.82952ZM2.59609 3.99952L3.87546 4.63827L2.27734 7.8289L1.00046 7.19077L2.59609 3.99952ZM9.84609 11.4451L6.21421 10.5376L3.13921 8.3414L4.88921 4.8414L8.00046 4.01702L8.61296 4.1789L5.80046 6.9089L5.79546 6.91452C5.68959 7.02039 5.60884 7.14869 5.55918 7.28993C5.50952 7.43118 5.49221 7.58178 5.50852 7.73061C5.52484 7.87945 5.57437 8.02271 5.65345 8.14985C5.73254 8.27698 5.83917 8.38473 5.96546 8.46515C7.25046 9.28577 8.80109 9.15265 10.0223 8.15265L11.7505 9.54077L9.84609 11.4451ZM13.7211 7.82827L12.1261 4.64077L13.4048 3.99952L15.0005 7.19077L13.7211 7.82827ZM8.23671 13.6201C8.2097 13.7282 8.14738 13.8242 8.05963 13.8928C7.97188 13.9614 7.86373 13.9987 7.75234 13.9989C7.71126 13.9988 7.67033 13.9938 7.63046 13.9839L5.02609 13.3326C4.96517 13.3176 4.90769 13.2911 4.85671 13.2545L3.20984 12.0783C3.10857 11.9988 3.04188 11.8833 3.02365 11.7558C3.00542 11.6284 3.03705 11.4988 3.11196 11.3941C3.18686 11.2894 3.29927 11.2176 3.42578 11.1937C3.55229 11.1698 3.68314 11.1956 3.79109 11.2658L5.36046 12.387L7.87546 13.0145C8.00408 13.0467 8.11466 13.1286 8.18287 13.2423C8.25108 13.356 8.27135 13.4921 8.23921 13.6208L8.23671 13.6201Z" fill="white"/>
</g>
<defs>
<clipPath id="clip0_4033_1226">
<rect width="16" height="16" fill="white"/>
</clipPath>
</defs>
</svg>
