<svg width="24" height="24" viewBox="0 0 24 24" fill="none" xmlns="http://www.w3.org/2000/svg">
<g clip-path="url(#clip0_2078_3919)">
<g clip-path="url(#clip1_2078_3919)">
<path d="M17.7969 15.3055C17.6737 15.455 17.5222 15.5748 17.3525 15.6569C17.1828 15.7389 16.9987 15.7813 16.8125 15.7812H13.75V16.7187C13.75 17.3404 13.5195 17.9365 13.1093 18.376C12.6991 18.8156 12.1427 19.0625 11.5625 19.0625C11.4812 19.0626 11.4015 19.0384 11.3324 18.9926C11.2632 18.9469 11.2073 18.8814 11.1709 18.8035L9.10484 14.375H6.75C6.51794 14.375 6.29538 14.2762 6.13128 14.1004C5.96719 13.9246 5.875 13.6861 5.875 13.4375V8.28125C5.875 8.03261 5.96719 7.79415 6.13128 7.61834C6.29538 7.44252 6.51794 7.34375 6.75 7.34375H16.1562C16.476 7.34363 16.7848 7.46859 17.0247 7.69515C17.2645 7.92172 17.4189 8.23431 17.4589 8.57422L18.1152 14.1992C18.1384 14.3973 18.1221 14.5983 18.0672 14.7891C18.0123 14.9798 17.9202 15.1558 17.7969 15.3055ZM6.75 13.4375H8.9375V8.28125H6.75V13.4375ZM17.2467 14.3164L16.5905 8.69141C16.5771 8.5781 16.5257 8.47391 16.4457 8.39838C16.3658 8.32286 16.2628 8.28121 16.1562 8.28125H9.8125V13.7955L11.8201 18.098C12.1176 18.0342 12.3853 17.8619 12.5777 17.6105C12.77 17.359 12.8751 17.0439 12.875 16.7187V15.3125C12.875 15.1882 12.9211 15.069 13.0031 14.981C13.0852 14.8931 13.1965 14.8438 13.3125 14.8438H16.8125C16.8746 14.8438 16.936 14.8296 16.9926 14.8023C17.0491 14.7749 17.0997 14.735 17.1407 14.6851C17.1818 14.6352 17.2125 14.5766 17.2308 14.513C17.249 14.4494 17.2545 14.3824 17.2467 14.3164Z" fill="white"/>
</g>
</g>
<defs>
<clipPath id="clip0_2078_3919">
<rect width="24" height="24" rx="4" transform="matrix(1 0 0 -1 0 24)" fill="white"/>
</clipPath>
<clipPath id="clip1_2078_3919">
<rect width="24" height="24" fill="white" transform="matrix(1 0 0 -1 -0.25 24.3867)"/>
</clipPath>
</defs>
</svg>
