<svg width="26" height="26" viewBox="0 0 26 26" fill="none" xmlns="http://www.w3.org/2000/svg">
<path d="M18.2395 12.4329C18.7264 11.9459 19 11.2854 19 10.5967C19 9.90802 18.7264 9.24754 18.2395 8.76056C17.7526 8.27358 17.0922 8 16.4036 8C15.715 8 15.0545 8.27358 14.5676 8.76056L9.66605 13.6651C9.37543 13.9556 9.16271 14.3147 9.04754 14.7091L8.02445 18.2176C7.99377 18.3228 7.99193 18.4343 8.01912 18.5405C8.04631 18.6466 8.10153 18.7435 8.17901 18.821C8.25648 18.8985 8.35335 18.9537 8.45949 18.9809C8.56562 19.0081 8.67712 19.0062 8.7823 18.9756L12.2904 17.9523C12.6848 17.8372 13.0438 17.6244 13.3343 17.3338L18.2395 12.4329Z" stroke="white"  stroke-width="2" stroke-linecap="round" stroke-linejoin="round"/>
</svg>
