<svg xmlns="http://www.w3.org/2000/svg" width="24" height="24" viewBox="0 0 24 24" fill="none">
                  <path
                    d="M12 6.75029C12.1989 6.75029 12.3897 6.82931 12.5304 6.96996C12.671 7.11061 12.75 7.30138 12.75 7.50029V12.7503C12.75 12.9492 12.671 13.14 12.5304 13.2806C12.3897 13.4213 12.1989 13.5003 12 13.5003C11.8011 13.5003 11.6104 13.4213 11.4697 13.2806C11.3291 13.14 11.25 12.9492 11.25 12.7503V7.50029C11.25 7.30138 11.3291 7.11061 11.4697 6.96996C11.6104 6.82931 11.8011 6.75029 12 6.75029ZM10.875 16.1253C10.875 16.3478 10.941 16.5653 11.0646 16.7503C11.1882 16.9353 11.364 17.0795 11.5695 17.1647C11.7751 17.2498 12.0013 17.2721 12.2195 17.2287C12.4377 17.1853 12.6382 17.0781 12.7955 16.9208C12.9529 16.7635 13.06 16.563 13.1034 16.3448C13.1468 16.1265 13.1245 15.9003 13.0394 15.6948C12.9543 15.4892 12.8101 15.3135 12.6251 15.1899C12.44 15.0663 12.2225 15.0003 12 15.0003C11.7017 15.0003 11.4155 15.1188 11.2045 15.3298C10.9936 15.5408 10.875 15.8269 10.875 16.1253ZM22.5 12.0003C22.5006 12.1967 22.4622 12.3914 22.387 12.5729C22.3119 12.7544 22.2015 12.9192 22.0622 13.0578L13.0575 22.0634C12.7765 22.3428 12.3963 22.4996 12 22.4996C11.6038 22.4996 11.2236 22.3428 10.9425 22.0634L1.94254 13.0578C1.66316 12.7767 1.50635 12.3966 1.50635 12.0003C1.50635 11.604 1.66316 11.2238 1.94254 10.9428L10.9472 1.93717C11.2283 1.65779 11.6084 1.50098 12.0047 1.50098C12.401 1.50098 12.7812 1.65779 13.0622 1.93717L22.0669 10.9428C22.2053 11.0818 22.3149 11.2467 22.3892 11.4282C22.4635 11.6097 22.5012 11.8042 22.5 12.0003ZM21 12.0003L12 3.00029L3.00004 12.0003L12 21.0003L21 12.0003Z"
                    fill="#C6232D" />
                </svg>