<svg width="24" height="24" viewBox="0 0 24 24" fill="none" xmlns="http://www.w3.org/2000/svg">
<path d="M18.375 6.5625V9.9375C18.375 10.0867 18.3157 10.2298 18.2102 10.3352C18.1048 10.4407 17.9617 10.5 17.8125 10.5C17.6633 10.5 17.5202 10.4407 17.4148 10.3352C17.3093 10.2298 17.25 10.0867 17.25 9.9375V7.92023L13.7105 11.4605C13.6049 11.566 13.4618 11.6253 13.3125 11.6253C13.1632 11.6253 13.0201 11.566 12.9145 11.4605C12.809 11.3549 12.7497 11.2118 12.7497 11.0625C12.7497 10.9132 12.809 10.7701 12.9145 10.6645L16.4548 7.125H14.4375C14.2883 7.125 14.1452 7.06574 14.0398 6.96025C13.9343 6.85476 13.875 6.71168 13.875 6.5625C13.875 6.41332 13.9343 6.27024 14.0398 6.16475C14.1452 6.05926 14.2883 6 14.4375 6H17.8125C17.9617 6 18.1048 6.05926 18.2102 6.16475C18.3157 6.27024 18.375 6.41332 18.375 6.5625ZM10.6645 12.9145L7.125 16.4548V14.4375C7.125 14.2883 7.06574 14.1452 6.96025 14.0398C6.85476 13.9343 6.71168 13.875 6.5625 13.875C6.41332 13.875 6.27024 13.9343 6.16475 14.0398C6.05926 14.1452 6 14.2883 6 14.4375V17.8125C6 17.9617 6.05926 18.1048 6.16475 18.2102C6.27024 18.3157 6.41332 18.375 6.5625 18.375H9.9375C10.0867 18.375 10.2298 18.3157 10.3352 18.2102C10.4407 18.1048 10.5 17.9617 10.5 17.8125C10.5 17.6633 10.4407 17.5202 10.3352 17.4148C10.2298 17.3093 10.0867 17.25 9.9375 17.25H7.92023L11.4605 13.7105C11.566 13.6049 11.6253 13.4618 11.6253 13.3125C11.6253 13.1632 11.566 13.0201 11.4605 12.9145C11.3549 12.809 11.2118 12.7497 11.0625 12.7497C10.9132 12.7497 10.7701 12.809 10.6645 12.9145Z" fill="white"/>
</svg>
