<svg width="24" height="24" viewBox="0 0 24 24" fill="none" xmlns="http://www.w3.org/2000/svg">
<path d="M2.03613 12.322C1.96712 12.1146 1.96712 11.8904 2.03613 11.683C3.42313 7.51 7.36013 4.5 12.0001 4.5C16.6381 4.5 20.5731 7.507 21.9631 11.678C22.0331 11.885 22.0331 12.109 21.9631 12.317C20.5771 16.49 16.6401 19.5 12.0001 19.5C7.36213 19.5 3.42613 16.493 2.03613 12.322Z" stroke="white" stroke-opacity="0.7" stroke-linecap="round" stroke-linejoin="round"/>
<path d="M15.0001 12C15.0001 12.7956 14.6841 13.5587 14.1215 14.1213C13.5588 14.6839 12.7958 15 12.0001 15C11.2045 15 10.4414 14.6839 9.87881 14.1213C9.3162 13.5587 9.00013 12.7956 9.00013 12C9.00013 11.2044 9.3162 10.4413 9.87881 9.87868C10.4414 9.31607 11.2045 9 12.0001 9C12.7958 9 13.5588 9.31607 14.1215 9.87868C14.6841 10.4413 15.0001 11.2044 15.0001 12Z" stroke="white" stroke-opacity="0.7" stroke-linecap="round" stroke-linejoin="round"/>
</svg>
