<svg width="24" height="24" viewBox="0 0 24 24" fill="none" xmlns="http://www.w3.org/2000/svg">
<path d="M16.95 7.05H16.959M7.5 3H16.5C18.9853 3 21 5.01472 21 7.5V16.5C21 18.9853 18.9853 21 16.5 21H7.5C5.01472 21 3 18.9853 3 16.5V7.5C3 5.01472 5.01472 3 7.5 3ZM15.6 11.433C15.7111 12.182 15.5831 12.947 15.2344 13.6191C14.8856 14.2912 14.3338 14.8363 13.6575 15.1767C12.9811 15.5171 12.2146 15.6356 11.467 15.5153C10.7194 15.395 10.0288 15.0421 9.49335 14.5066C8.95793 13.9712 8.60496 13.2806 8.48466 12.533C8.36436 11.7854 8.48286 11.0189 8.82329 10.3425C9.16373 9.66617 9.70877 9.11437 10.3809 8.76562C11.053 8.41687 11.818 8.28893 12.567 8.4C13.331 8.5133 14.0384 8.86932 14.5845 9.41548C15.1307 9.96163 15.4867 10.669 15.6 11.433Z" stroke="white" stroke-width="1.5" stroke-linecap="round" stroke-linejoin="round"/>
</svg>
