<svg width="24" height="24" viewBox="0 0 24 24" fill="none" xmlns="http://www.w3.org/2000/svg">
<g clip-path="url(#clip0_2078_3913)">
<g clip-path="url(#clip1_2078_3913)">
<path d="M17.7969 8.69453C17.6737 8.54496 17.5222 8.42517 17.3525 8.34314C17.1828 8.26111 16.9987 8.21871 16.8125 8.21875H13.75V7.28125C13.75 6.65965 13.5195 6.06351 13.1093 5.62397C12.6991 5.18443 12.1427 4.9375 11.5625 4.9375C11.4812 4.93744 11.4015 4.96164 11.3324 5.00738C11.2632 5.05312 11.2073 5.11861 11.1709 5.19648L9.10484 9.625H6.75C6.51794 9.625 6.29538 9.72377 6.13128 9.89959C5.96719 10.0754 5.875 10.3139 5.875 10.5625V15.7188C5.875 15.9674 5.96719 16.2058 6.13128 16.3817C6.29538 16.5575 6.51794 16.6562 6.75 16.6562H16.1562C16.476 16.6564 16.7848 16.5314 17.0247 16.3048C17.2645 16.0783 17.4189 15.7657 17.4589 15.4258L18.1152 9.80078C18.1384 9.60275 18.1221 9.40168 18.0672 9.21094C18.0123 9.0202 17.9202 8.84416 17.7969 8.69453ZM6.75 10.5625H8.9375V15.7188H6.75V10.5625ZM17.2467 9.68359L16.5905 15.3086C16.5771 15.4219 16.5257 15.5261 16.4457 15.6016C16.3658 15.6771 16.2628 15.7188 16.1562 15.7188H9.8125V10.2045L11.8201 5.90195C12.1176 5.96576 12.3853 6.13806 12.5777 6.38954C12.77 6.64101 12.8751 6.95612 12.875 7.28125V8.6875C12.875 8.81182 12.9211 8.93105 13.0031 9.01896C13.0852 9.10686 13.1965 9.15625 13.3125 9.15625H16.8125C16.8746 9.15623 16.936 9.17036 16.9926 9.19771C17.0491 9.22507 17.0997 9.26501 17.1407 9.31489C17.1818 9.36477 17.2125 9.42345 17.2308 9.48702C17.249 9.55059 17.2545 9.6176 17.2467 9.68359Z" fill="white"/>
</g>
</g>
<defs>
<clipPath id="clip0_2078_3913">
<rect width="24" height="24" rx="4" fill="white"/>
</clipPath>
<clipPath id="clip1_2078_3913">
<rect width="24" height="24" fill="white" transform="translate(-0.25 -0.386719)"/>
</clipPath>
</defs>
</svg>
