<svg width="9" height="11" viewBox="0 0 9 11" fill="none" xmlns="http://www.w3.org/2000/svg">
<path d="M6.9 4.73077V2.80769C6.9 2.19565 6.64714 1.60868 6.19706 1.17591C5.74697 0.743131 5.13652 0.5 4.5 0.5C3.86348 0.5 3.25303 0.743131 2.80294 1.17591C2.35286 1.60868 2.1 2.19565 2.1 2.80769V4.73077M1.7 10.5H7.3C7.61826 10.5 7.92348 10.3784 8.14853 10.162C8.37357 9.94566 8.5 9.65217 8.5 9.34615V5.88462C8.5 5.5786 8.37357 5.28511 8.14853 5.06872C7.92348 4.85234 7.61826 4.73077 7.3 4.73077H1.7C1.38174 4.73077 1.07652 4.85234 0.851472 5.06872C0.626428 5.28511 0.5 5.5786 0.5 5.88462V9.34615C0.5 9.65217 0.626428 9.94566 0.851472 10.162C1.07652 10.3784 1.38174 10.5 1.7 10.5Z" stroke="white" stroke-linecap="round" stroke-linejoin="round"/>
</svg>
