<svg width="18" height="18" viewBox="0 0 18 18" fill="none" xmlns="http://www.w3.org/2000/svg">
<path d="M15.7392 9.36431C15.6689 10.6664 15.223 11.9203 14.4553 12.9744C13.6876 14.0284 12.631 14.8376 11.4132 15.304C10.1955 15.7704 8.86871 15.874 7.59329 15.6025C6.31788 15.3309 5.14843 14.6957 4.22631 13.7737C3.30419 12.8517 2.66888 11.6823 2.39717 10.4069C2.12547 9.1315 2.22901 7.80472 2.69527 6.58692C3.16153 5.36913 3.97055 4.31245 5.02454 3.54464C6.07853 2.77682 7.33236 2.33074 8.63446 2.26031C8.93821 2.24381 9.09721 2.60531 8.93596 2.86256C8.39663 3.72548 8.16569 4.74571 8.28083 5.75677C8.39598 6.76784 8.8504 7.71002 9.56995 8.42957C10.2895 9.14912 11.2317 9.60355 12.2427 9.71869C13.2538 9.83383 14.274 9.60289 15.137 9.06356C15.395 8.90231 15.7557 9.06056 15.7392 9.36431Z" stroke="white" stroke-width="2" stroke-linecap="round" stroke-linejoin="round"/>
</svg>
