<svg width="20" height="20" viewBox="0 0 20 20" fill="none" xmlns="http://www.w3.org/2000/svg">
<path d="M3.08433 0.328125H0.320312V3.09213H3.08433V0.328125Z" fill="white" />
<path d="M5.84797 3.0957H3.08398V5.8597H5.84797V3.0957Z" fill="white" />
<path d="M8.61167 5.85938H5.84766V8.62338H8.61167V5.85938Z" fill="white" />
<path d="M11.3763 8.62402H8.6123V11.388H11.3763V8.62402Z" fill="white" />
<path d="M14.14 5.85938H11.376V8.62338H14.14V5.85938Z" fill="white" />
<path d="M16.9085 3.0957H14.1445V5.8597H16.9085V3.0957Z" fill="white" />
<path d="M19.6722 0.328125H16.9082V3.09213H19.6722V0.328125Z" fill="white" />
<path d="M3.08433 16.9199H0.320312V19.6839H3.08433V16.9199Z" fill="white" />
<path d="M5.84797 14.1523H3.08398V16.9163H5.84797V14.1523Z" fill="white" />
<path d="M8.61167 11.3877H5.84766V14.1517H8.61167V11.3877Z" fill="white" />
<path d="M14.14 11.3877H11.376V14.1517H14.14V11.3877Z" fill="white" />
<path d="M16.9085 14.1523H14.1445V16.9163H16.9085V14.1523Z" fill="white" />
<path d="M19.6722 16.9199H16.9082V19.6839H19.6722V16.9199Z" fill="white" />
</svg>
