<svg width="24" height="24" viewBox="0 0 24 24" fill="none" xmlns="http://www.w3.org/2000/svg">
<path d="M8.9375 9.92612H5.5625C5.41332 9.92612 5.27024 9.86685 5.16475 9.76136C5.05926 9.65587 5 9.5128 5 9.36362V5.98862C5 5.83943 5.05926 5.69636 5.16475 5.59087C5.27024 5.48538 5.41332 5.42612 5.5625 5.42612C5.71168 5.42612 5.85476 5.48538 5.96025 5.59087C6.06574 5.69636 6.125 5.83943 6.125 5.98862V8.00588L7.15367 6.97721C8.4082 5.71637 10.112 5.00521 11.8906 5.00002H11.9279C13.6914 4.99548 15.3857 5.68588 16.6438 6.92166C16.7465 7.02675 16.804 7.16787 16.804 7.31483C16.804 7.46178 16.7465 7.6029 16.6438 7.70801C16.5411 7.81311 16.4013 7.87384 16.2544 7.87721C16.1075 7.88058 15.9651 7.82632 15.8577 7.72604C14.809 6.69672 13.3973 6.12158 11.9279 6.12502H11.8963C10.4142 6.12958 8.99451 6.72209 7.94891 7.77244L6.92023 8.80112H8.9375C9.08668 8.80112 9.22976 8.86038 9.33525 8.96587C9.44074 9.07136 9.5 9.21443 9.5 9.36362C9.5 9.5128 9.44074 9.65587 9.33525 9.76136C9.22976 9.86685 9.08668 9.92612 8.9375 9.92612ZM17.9375 13.3011H14.5625C14.4133 13.3011 14.2702 13.3604 14.1648 13.4659C14.0593 13.5714 14 13.7144 14 13.8636C14 14.0128 14.0593 14.1559 14.1648 14.2614C14.2702 14.3669 14.4133 14.4261 14.5625 14.4261H16.5798L15.5511 15.4548C14.5057 16.505 13.0863 17.0975 11.6045 17.1022H11.5728C10.1034 17.1057 8.6917 16.5305 7.64305 15.5012C7.59065 15.4476 7.52808 15.405 7.459 15.3759C7.38991 15.3469 7.31572 15.3319 7.24077 15.3319C7.16581 15.3319 7.09162 15.3469 7.02254 15.376C6.95346 15.405 6.89089 15.4476 6.8385 15.5012C6.78612 15.5548 6.74497 15.6184 6.71749 15.6881C6.69 15.7578 6.67673 15.8324 6.67844 15.9073C6.68016 15.9822 6.69684 16.0561 6.72749 16.1244C6.75815 16.1928 6.80216 16.2544 6.85695 16.3056C8.11503 17.5414 9.80932 18.2318 11.5728 18.2272H11.6094C13.3878 18.2218 15.0913 17.5107 16.3456 16.25L17.375 15.2214V17.2386C17.375 17.3878 17.4343 17.5309 17.5398 17.6364C17.6452 17.7419 17.7883 17.8011 17.9375 17.8011C18.0867 17.8011 18.2298 17.7419 18.3352 17.6364C18.4407 17.5309 18.5 17.3878 18.5 17.2386V13.8636C18.5 13.7144 18.4407 13.5714 18.3352 13.4659C18.2298 13.3604 18.0867 13.3011 17.9375 13.3011Z" fill="white"/>
</svg>
