<svg width="26" height="26" viewBox="0 0 26 26" fill="none" xmlns="http://www.w3.org/2000/svg">
<path d="M16.8889 9.47328V17.8092C16.8889 18.125 16.7718 18.4279 16.5635 18.6512C16.3551 18.8745 16.0725 19 15.7778 19H10.2222C9.92754 19 9.64492 18.8745 9.43655 18.6512C9.22817 18.4279 9.11111 18.125 9.11111 17.8092V9.47328M8 9.47328H18M10.7778 9.19847V8.09924C10.7778 7.8077 10.8948 7.52811 11.1032 7.32196C11.3116 7.11581 11.5942 7 11.8889 7H14.1111C14.4058 7 14.6884 7.11581 14.8968 7.32196C15.1052 7.52811 15.2222 7.8077 15.2222 8.09924V9.19847" stroke="white" stroke-width="2" stroke-linecap="round" stroke-linejoin="round"/>
</svg>
