<svg width="24" height="24" viewBox="0 0 24 24" fill="none" xmlns="http://www.w3.org/2000/svg">
<path d="M0 9.99848L0 11.998H1.84577L1.84577 9.99848H0Z" fill="white"/>
<path d="M1.84766 10.0014L1.84766 12.001H3.69342V10.0014H1.84766Z" fill="white"/>
<path d="M5.53906 11.9985V13.998H7.38482V11.9985H5.53906Z" fill="white"/>
<path d="M5.53906 13.9985V15.998H7.38483V13.9985H5.53906Z" fill="white"/>
<path d="M5.53906 16.0014V18.001H7.38483V16.0014H5.53906Z" fill="white"/>
<path d="M3.68945 17.9995V19.999H5.53522V17.9995H3.68945Z" fill="white"/>
<path d="M3.68945 20.0014V22.001H5.53522V20.0014H3.68945Z" fill="white"/>
<path d="M5.53906 17.9995V19.999H7.38483V17.9995H5.53906Z" fill="white"/>
<path d="M5.54102 20.0014V22.001H7.38678V20.0014H5.54102Z" fill="white"/>
<path d="M5.53906 22.0004V24H7.38482V22.0004H5.53906Z" fill="white"/>
<path d="M7.38477 19.9975V21.9971H9.23053V19.9975H7.38477Z" fill="white"/>
<path d="M9.22656 17.9985V19.998H11.0723V17.9985H9.22656Z" fill="white"/>
<path d="M7.38281 17.9985V19.998H9.22858V17.9985H7.38281Z" fill="white"/>
<path d="M1.84766 11.9985L1.84766 13.998H3.69341V11.9985H1.84766Z" fill="white"/>
<path d="M16.6152 11.9965V13.9961H18.461V11.9965H16.6152Z" fill="white"/>
<path d="M16.6133 13.9985V15.998H18.459V13.9985H16.6133Z" fill="white"/>
<path d="M16.6133 15.9995V17.999H18.459V15.9995H16.6133Z" fill="white"/>
<path d="M18.4609 17.9985V19.998H20.3067V17.9985H18.4609Z" fill="white"/>
<path d="M18.4629 19.9975V21.9971H20.3087V19.9975H18.4629Z" fill="white"/>
<path d="M16.6133 17.9985V19.998H18.459V17.9985H16.6133Z" fill="white"/>
<path d="M16.6152 19.9975V21.9971H18.461V19.9975H16.6152Z" fill="white"/>
<path d="M16.6152 21.9975V23.9971H18.461V21.9975H16.6152Z" fill="white"/>
<path d="M14.7734 20.0014V22.001H16.6192V20.0014H14.7734Z" fill="white"/>
<path d="M12.9199 17.9995V19.999H14.7657V17.9995H12.9199Z" fill="white"/>
<path d="M14.7695 17.9995V19.999H16.6153V17.9995H14.7695Z" fill="white"/>
<path d="M20.3086 11.9985V13.998H22.1544V11.9985H20.3086Z" fill="white"/>
<path d="M1.8457 7.99947L1.8457 9.99902H3.69147V7.99947H1.8457Z" fill="white"/>
<path d="M3.68945 10.0014V12.001H5.53522V10.0014H3.68945Z" fill="white"/>
<path d="M3.68945 11.9985V13.998H5.53521V11.9985H3.68945Z" fill="white"/>
<path d="M3.68945 8.00239V10.002H5.53522V8.00239H3.68945Z" fill="white"/>
<path d="M5.53906 8.00239V10.002H7.38483V8.00239H5.53906Z" fill="white"/>
<path d="M7.38281 7.99946V9.99902H9.22858V7.99946H7.38281Z" fill="white"/>
<path d="M7.38281 5.99946V7.99902H9.22858V5.99946H7.38281Z" fill="white"/>
<path d="M9.22656 7.99946V9.99902H11.0723V7.99946H9.22656Z" fill="white"/>
<path d="M11.0742 7.99946V9.99902H12.92V7.99946H11.0742Z" fill="white"/>
<path d="M11.0781 5.99946V7.99902H12.9239V5.99946H11.0781Z" fill="white"/>
<path d="M11.0781 3.99946V5.99902H12.9239V3.99946H11.0781Z" fill="white"/>
<path d="M11.0781 2.00141V4.00098H12.9239V2.00141H11.0781Z" fill="white"/>
<path d="M11.0781 0.000436425V2H12.9239V0.000436425L11.0781 0.000436425Z" fill="white"/>
<path d="M12.9199 2.00142V4.00098H14.7657V2.00142H12.9199Z" fill="white"/>
<path d="M9.22852 2.00044V4H11.0743V2.00044H9.22852Z" fill="white"/>
<path d="M9.22656 5.99946V7.99902H11.0723V5.99946H9.22656Z" fill="white"/>
<path d="M9.22852 3.99946V5.99902H11.0743V3.99946H9.22852Z" fill="white"/>
<path d="M7.38281 3.99946V5.99902H9.22858V3.99946H7.38281Z" fill="white"/>
<path d="M12.9199 3.99947V5.99902H14.7657V3.99947H12.9199Z" fill="white"/>
<path d="M14.7695 3.99946V5.99902H16.6153V3.99946H14.7695Z" fill="white"/>
<path d="M14.7695 8.00239V10.002H16.6153V8.00239H14.7695Z" fill="white"/>
<path d="M14.7695 6.00337V8.00293H16.6153V6.00337H14.7695Z" fill="white"/>
<path d="M16.6133 7.99946V9.99902H18.459V7.99946H16.6133Z" fill="white"/>
<path d="M5.54102 10.0014V12.001H7.38678V10.0014H5.54102Z" fill="white"/>
<path d="M7.38477 9.99848V11.998H9.23053V9.99848H7.38477Z" fill="white"/>
<path d="M9.22852 9.99848V11.998H11.0743V9.99848H9.22852Z" fill="white"/>
<path d="M11.0781 10.0014V12.001H12.9239V10.0014H11.0781Z" fill="white"/>
<path d="M12.9199 10.0014V12.001H14.7657V10.0014H12.9199Z" fill="white"/>
<path d="M7.38477 11.9965V13.9961H9.23052V11.9965H7.38477Z" fill="white"/>
<path d="M9.22852 11.9995V13.999H11.0743V11.9995H9.22852Z" fill="white"/>
<path d="M11.0781 11.9985V13.998H12.9239V11.9985H11.0781Z" fill="white"/>
<path d="M12.9199 11.9985V13.998H14.7657V11.9985H12.9199Z" fill="white"/>
<path d="M7.38281 13.9985V15.998H9.22858V13.9985H7.38281Z" fill="white"/>
<path d="M9.22852 13.9985V15.998H11.0743V13.9985H9.22852Z" fill="white"/>
<path d="M11.0781 13.9985V15.998H12.9239V13.9985H11.0781Z" fill="white"/>
<path d="M12.9199 13.9985V15.998H14.7657V13.9985H12.9199Z" fill="white"/>
<path d="M14.7695 13.9985V15.998H16.6153V13.9985H14.7695Z" fill="white"/>
<path d="M7.38281 15.9995V17.999H9.22858V15.9995H7.38281Z" fill="white"/>
<path d="M9.22656 15.9995V17.999H11.0723V15.9995H9.22656Z" fill="white"/>
<path d="M11.0781 15.9995V17.999H12.9239V15.9995H11.0781Z" fill="white"/>
<path d="M12.9199 15.9995V17.999H14.7657V15.9995H12.9199Z" fill="white"/>
<path d="M14.7695 16.0014V18.001H16.6153V16.0014H14.7695Z" fill="white"/>
<path d="M16.6152 9.99848V11.998H18.461V9.99848H16.6152Z" fill="white"/>
<path d="M20.3066 7.99946V9.99902H22.1524V7.99946H20.3066Z" fill="white"/>
<path d="M20.3086 10.0014V12.001H22.1544V10.0014H20.3086Z" fill="white"/>
<path d="M18.4629 11.9985V13.998H20.3086V11.9985H18.4629Z" fill="white"/>
<path d="M18.4609 7.99946V9.99902H20.3067V7.99946H18.4609Z" fill="white"/>
<path d="M18.4629 9.99848V11.998H20.3087V9.99848H18.4629Z" fill="white"/>
<path d="M22.1543 10.0014V12.001H24.0001V10.0014H22.1543Z" fill="white"/>
</svg>
