<svg width="24" height="24" viewBox="0 0 24 24" fill="none" xmlns="http://www.w3.org/2000/svg">
<g clip-path="url(#clip0_4033_10811)">
<g clip-path="url(#clip1_4033_10811)">
<path d="M7.125 16.5H6.375H7.125ZM5.875 7C5.46079 7 5.125 7.33579 5.125 7.75C5.125 8.16421 5.46079 8.5 5.875 8.5V7.75V7ZM17.125 8.5C17.5392 8.5 17.875 8.16421 17.875 7.75C17.875 7.33579 17.5392 7 17.125 7V7.75V8.5ZM10.25 5.25V4.5V5.25ZM12.75 5.25V4.5V5.25ZM15.875 7.75H15.125V16.5H15.875H16.625V7.75H15.875ZM15.875 16.5H15.125C15.125 16.6326 15.0723 16.7598 14.9786 16.8536L15.5089 17.3839L16.0392 17.9142C16.4143 17.5391 16.625 17.0304 16.625 16.5H15.875ZM15.5089 17.3839L14.9786 16.8536C14.8848 16.9473 14.7576 17 14.625 17V17.75V18.5C15.1554 18.5 15.6641 18.2893 16.0392 17.9142L15.5089 17.3839ZM14.625 17.75V17H8.375V17.75V18.5H14.625V17.75ZM8.375 17.75V17C8.24239 17 8.11521 16.9473 8.02145 16.8536L7.49112 17.3839L6.96079 17.9142C7.33586 18.2893 7.84457 18.5 8.375 18.5V17.75ZM7.49112 17.3839L8.02145 16.8536C7.92768 16.7598 7.875 16.6326 7.875 16.5H7.125H6.375C6.375 17.0304 6.58571 17.5391 6.96079 17.9142L7.49112 17.3839ZM7.125 16.5H7.875V7.75H7.125H6.375V16.5H7.125ZM5.875 7.75V8.5H17.125V7.75V7H5.875V7.75ZM9 7.75H9.75V6.5H9H8.25V7.75H9ZM9 6.5H9.75C9.75 6.36739 9.80268 6.24021 9.89645 6.14645L9.36612 5.61612L8.83579 5.08579C8.46071 5.46086 8.25 5.96957 8.25 6.5H9ZM9.36612 5.61612L9.89645 6.14645C9.99022 6.05268 10.1174 6 10.25 6V5.25V4.5C9.71957 4.5 9.21086 4.71071 8.83579 5.08579L9.36612 5.61612ZM10.25 5.25V6H12.75V5.25V4.5H10.25V5.25ZM12.75 5.25V6C12.8826 6 13.0098 6.05268 13.1036 6.14645L13.6339 5.61612L14.1642 5.08579C13.7891 4.71071 13.2804 4.5 12.75 4.5V5.25ZM13.6339 5.61612L13.1036 6.14645C13.1973 6.24021 13.25 6.36739 13.25 6.5H14H14.75C14.75 5.96957 14.5393 5.46086 14.1642 5.08579L13.6339 5.61612ZM14 6.5H13.25V7.75H14H14.75V6.5H14Z" fill="white"/>
</g>
</g>
<defs>
<clipPath id="clip0_4033_10811">
<rect width="24" height="24" rx="4" fill="white"/>
</clipPath>
<clipPath id="clip1_4033_10811">
<rect width="24" height="24" fill="white" transform="translate(-0.25 -0.386719)"/>
</clipPath>
</defs>
</svg>
