<svg width="48" height="48" viewBox="0 0 48 48" fill="none" xmlns="http://www.w3.org/2000/svg">
<path d="M21.8008 0.03125H26.1562V4.38665H21.8008V0.03125Z" fill="#C6232D"/>
<path d="M17.4454 4.39258H21.8008V8.74797H17.4454V4.39258Z" fill="#C6232D"/>
<path d="M13.0899 8.75H17.4453V13.1054H13.0899V8.75Z" fill="#C6232D"/>
<path d="M8.72662 13.0918H13.082V17.4472H8.72662V13.0918Z" fill="#C6232D"/>
<path d="M4.36333 17.4551H8.71875V21.8105H4.36333V17.4551Z" fill="#C6232D"/>
<path d="M5.34058e-05 21.8184H4.35547V26.1738H5.34058e-05V21.8184Z" fill="#C6232D"/>
<path d="M30.5292 4.39258H26.1738V8.74797H30.5292V4.39258Z" fill="#C6232D"/>
<path d="M34.8847 8.75H30.5293V13.1054H34.8847V8.75Z" fill="#C6232D"/>
<path d="M39.248 13.0918H34.8926V17.4472H39.248V13.0918Z" fill="#C6232D"/>
<path d="M43.6113 17.4551H39.2559V21.8105H43.6113V17.4551Z" fill="#C6232D"/>
<path d="M26.1738 21.8184H21.8184V26.1738H26.1738V21.8184Z" fill="#C6232D"/>
<path d="M26.1738 17.4551H21.8184V21.8105H26.1738V17.4551Z" fill="#C6232D"/>
<path d="M26.1738 13.0918H21.8184V17.4472H26.1738V13.0918Z" fill="#C6232D"/>
<path d="M26.1738 30.5449H21.8184V34.9003H26.1738V30.5449Z" fill="#C6232D"/>
<path d="M8.71085 26.1797H4.35547V30.5351H8.71085V26.1797Z" fill="#C6232D"/>
<path d="M13.0664 30.5352H8.71094V34.8906H13.0664V30.5352Z" fill="#C6232D"/>
<path d="M17.4296 34.877H13.0742V39.2323H17.4296V34.877Z" fill="#C6232D"/>
<path d="M21.7929 39.2422H17.4375V43.5976H21.7929V39.2422Z" fill="#C6232D"/>
<path d="M26.1562 43.6055H21.8008V47.9609H26.1562V43.6055Z" fill="#C6232D"/>
<path d="M43.627 21.8184H47.9824V26.1738H43.627V21.8184Z" fill="#C6232D"/>
<path d="M39.2715 26.1738H43.627V30.5292H39.2715V26.1738Z" fill="#C6232D"/>
<path d="M34.9083 30.5156H39.2637V34.871H34.9083V30.5156Z" fill="#C6232D"/>
<path d="M30.545 34.8789H34.9004V39.2343H30.545V34.8789Z" fill="#C6232D"/>
<path d="M26.1817 39.2441H30.5371V43.5995H26.1817V39.2441Z" fill="#C6232D"/>
</svg>
