<svg width="24" height="24" viewBox="0 0 24 24" fill="none" xmlns="http://www.w3.org/2000/svg">
<path d="M9.5 3.01074H4.5C3.94772 3.01074 3.5 3.45846 3.5 4.01074V9.01074C3.5 9.56303 3.94772 10.0107 4.5 10.0107H9.5C10.0523 10.0107 10.5 9.56303 10.5 9.01074V4.01074C10.5 3.45846 10.0523 3.01074 9.5 3.01074Z" stroke="white"  stroke-width="1.5" stroke-linecap="round" stroke-linejoin="round"/>
<path d="M20.5 3.01074H15.5C14.9477 3.01074 14.5 3.45846 14.5 4.01074V9.01074C14.5 9.56303 14.9477 10.0107 15.5 10.0107H20.5C21.0523 10.0107 21.5 9.56303 21.5 9.01074V4.01074C21.5 3.45846 21.0523 3.01074 20.5 3.01074Z" stroke="white"  stroke-width="1.5" stroke-linecap="round" stroke-linejoin="round"/>
<path d="M20.5 14.0107H15.5C14.9477 14.0107 14.5 14.4585 14.5 15.0107V20.0107C14.5 20.563 14.9477 21.0107 15.5 21.0107H20.5C21.0523 21.0107 21.5 20.563 21.5 20.0107V15.0107C21.5 14.4585 21.0523 14.0107 20.5 14.0107Z" stroke="white"  stroke-width="1.5" stroke-linecap="round" stroke-linejoin="round"/>
<path d="M9.5 14.0107H4.5C3.94772 14.0107 3.5 14.4585 3.5 15.0107V20.0107C3.5 20.563 3.94772 21.0107 4.5 21.0107H9.5C10.0523 21.0107 10.5 20.563 10.5 20.0107V15.0107C10.5 14.4585 10.0523 14.0107 9.5 14.0107Z" stroke="white"  stroke-width="1.5" stroke-linecap="round" stroke-linejoin="round"/>
</svg>
