<svg width="24" height="24" viewBox="0 0 24 24" fill="none" xmlns="http://www.w3.org/2000/svg">
<path d="M22 21.0212C22 20.4908 21.7893 19.9821 21.4142 19.607C21.0391 19.2319 20.5304 19.0212 20 19.0212H18C17.4696 19.0212 16.9609 19.2319 16.5858 19.607C16.2107 19.9821 16 20.4908 16 21.0212M12.454 18.9912C10.8134 19.0672 9.17968 18.7339 7.7 18.0212L3 19.0212L4.3 15.1212C1.976 11.6842 2.874 7.24921 6.4 4.74721C9.926 2.24621 14.99 2.45121 18.245 5.22721C19.912 6.65021 20.841 8.52121 20.992 10.4432M17 16.0212C17 16.5516 17.2107 17.0603 17.5858 17.4354C17.9609 17.8105 18.4696 18.0212 19 18.0212C19.5304 18.0212 20.0391 17.8105 20.4142 17.4354C20.7893 17.0603 21 16.5516 21 16.0212C21 15.4908 20.7893 14.9821 20.4142 14.607C20.0391 14.2319 19.5304 14.0212 19 14.0212C18.4696 14.0212 17.9609 14.2319 17.5858 14.607C17.2107 14.9821 17 15.4908 17 16.0212Z" stroke="white"  stroke-width="1.5" stroke-linecap="round" stroke-linejoin="round"/>
</svg>
