<svg width="24" height="24" viewBox="0 0 24 24" fill="none" xmlns="http://www.w3.org/2000/svg">
<path d="M21 5.00195C21 6.65881 16.9706 8.00195 12 8.00195C7.02944 8.00195 3 6.65881 3 5.00195M21 5.00195C21 3.3451 16.9706 2.00195 12 2.00195C7.02944 2.00195 3 3.3451 3 5.00195M21 5.00195V19.002C21 19.7976 20.0518 20.5607 18.364 21.1233C16.6761 21.6859 14.3869 22.002 12 22.002C9.61305 22.002 7.32387 21.6859 5.63604 21.1233C3.94821 20.5607 3 19.7976 3 19.002V5.00195M3 12.002C3 12.7976 3.94821 13.5607 5.63604 14.1233C7.32387 14.6859 9.61305 15.002 12 15.002C14.3869 15.002 16.6761 14.6859 18.364 14.1233C20.0518 13.5607 21 12.7976 21 12.002" stroke="white"  stroke-width="1.5" stroke-linecap="round" stroke-linejoin="round"/>
</svg>
