<svg width="24" height="24" viewBox="0 0 24 24" fill="none" xmlns="http://www.w3.org/2000/svg">
<path d="M15.75 5.24971C16.5456 5.24971 17.3087 5.56578 17.8713 6.12839C18.4339 6.691 18.75 7.45406 18.75 8.24971M21.75 8.24971C21.7501 9.12483 21.5588 9.98938 21.1895 10.7827C20.8202 11.5761 20.2818 12.2791 19.6121 12.8424C18.9424 13.4057 18.1575 13.8156 17.3126 14.0436C16.4677 14.2715 15.5831 14.3118 14.721 14.1617C14.158 14.0647 13.562 14.1877 13.158 14.5917L10.5 17.2497H8.25V19.4997H6V21.7497H2.25V18.9317C2.25 18.3347 2.487 17.7617 2.909 17.3407L9.408 10.8417C9.812 10.4377 9.935 9.84171 9.838 9.27871C9.6962 8.45988 9.72604 7.62052 9.92563 6.81382C10.1252 6.00712 10.4902 5.25068 10.9975 4.59244C11.5047 3.9342 12.1432 3.38851 12.8724 2.98995C13.6016 2.5914 14.4057 2.34867 15.2336 2.27715C16.0616 2.20562 16.8953 2.30687 17.6821 2.57447C18.4688 2.84208 19.1914 3.27019 19.8041 3.8317C20.4167 4.3932 20.906 5.07584 21.241 5.83636C21.5759 6.59688 21.7493 7.41869 21.75 8.24971Z" stroke="white"  stroke-width="1.5" stroke-linecap="round" stroke-linejoin="round"/>
</svg>
