<svg width="24" height="24" viewBox="0 0 24 24" fill="none" xmlns="http://www.w3.org/2000/svg">
<path d="M10.3 15.002H7C5.93913 15.002 4.92172 15.4234 4.17157 16.1735C3.42143 16.9237 3 17.9411 3 19.002V21.002M15 15.502V14.002C15 13.4715 15.2107 12.9628 15.5858 12.5877C15.9609 12.2127 16.4696 12.002 17 12.002C17.5304 12.002 18.0391 12.2127 18.4142 12.5877C18.7893 12.9628 19 13.4715 19 14.002V15.502M14 7.00195C14 9.21109 12.2091 11.002 10 11.002C7.79086 11.002 6 9.21109 6 7.00195C6 4.79281 7.79086 3.00195 10 3.00195C12.2091 3.00195 14 4.79281 14 7.00195ZM13.899 16.002H20.101C20.5975 16.002 21 16.4044 21 16.901V20.103C21 20.5995 20.5975 21.002 20.101 21.002H13.899C13.4025 21.002 13 20.5995 13 20.103V16.901C13 16.4044 13.4025 16.002 13.899 16.002Z" stroke="white"  stroke-width="1.5" stroke-linecap="round" stroke-linejoin="round"/>
</svg>
