<svg width="14" height="10" viewBox="0 0 14 10" fill="none" xmlns="http://www.w3.org/2000/svg">
<g clip-path="url(#clip0_2254_11801)">
<mask id="mask0_2254_11801" style="mask-type:alpha" maskUnits="userSpaceOnUse" x="0" y="0" width="14" height="10">
<path d="M12.6667 0H1.33333C0.596954 0 0 0.596954 0 1.33333V8.66667C0 9.40305 0.596954 10 1.33333 10H12.6667C13.403 10 14 9.40305 14 8.66667V1.33333C14 0.596954 13.403 0 12.6667 0Z" fill="white"/>
</mask>
<g mask="url(#mask0_2254_11801)">
<path d="M12.6667 0H1.33333C0.596954 0 0 0.596954 0 1.33333V8.66667C0 9.40305 0.596954 10 1.33333 10H12.6667C13.403 10 14 9.40305 14 8.66667V1.33333C14 0.596954 13.403 0 12.6667 0Z" fill="#22438B"/>
<path fill-rule="evenodd" clip-rule="evenodd" d="M2.00008 0.666992L0.649414 0.684326L0.666747 2.00033L11.9881 9.35233L13.3461 9.32766L13.3207 8.01966L2.00008 0.666992Z" fill="white"/>
<path fill-rule="evenodd" clip-rule="evenodd" d="M1.33366 0.666992L0.666992 1.33366L12.667 9.33366L13.3337 8.66699L1.33366 0.666992Z" fill="#C7152A"/>
<path fill-rule="evenodd" clip-rule="evenodd" d="M12.0005 0.666992H13.3338V2.00033C13.3338 2.00033 5.50048 6.93099 2.01248 9.35232C1.97048 9.38166 0.680482 9.35432 0.680482 9.35432L0.577148 8.08699L12.0005 0.666992Z" fill="white"/>
<path fill-rule="evenodd" clip-rule="evenodd" d="M12.6957 0.648438L13.3337 1.33377L1.33366 9.33377L0.666992 8.6671L12.6957 0.648438Z" fill="#C7152A"/>
<path fill-rule="evenodd" clip-rule="evenodd" d="M5.33366 0.666992H8.66699V3.33366H13.3337V6.66699H8.66699V9.33366H5.33366V6.66699H0.666992V3.33366H5.33366V0.666992Z" fill="white"/>
<path fill-rule="evenodd" clip-rule="evenodd" d="M6.00033 0.666992H8.00033V4.00033H13.3337V6.00033H8.00033V9.33366H6.00033V6.00033H0.666992V4.00033H6.00033V0.666992Z" fill="#C7152A"/>
<path d="M12.6663 0.333008H1.33301C0.780723 0.333008 0.333008 0.780723 0.333008 1.33301V8.66634C0.333008 9.21863 0.780723 9.66634 1.33301 9.66634H12.6663C13.2186 9.66634 13.6663 9.21863 13.6663 8.66634V1.33301C13.6663 0.780723 13.2186 0.333008 12.6663 0.333008Z" stroke="black" stroke-opacity="0.1"/>
</g>
</g>
<defs>
<clipPath id="clip0_2254_11801">
<rect width="14" height="10" fill="white"/>
</clipPath>
</defs>
</svg>
