<svg width="440" height="370" viewBox="0 0 440 370" fill="none" xmlns="http://www.w3.org/2000/svg">
<path d="M231.559 173.425H208.407V196.575H231.559V173.425Z" fill="#FFF" fill-opacity="0.1"/>
<path d="M231.559 150.273H208.407V173.425H231.559V150.273Z" fill="#FFF" fill-opacity="0.1"/>
<path d="M185.253 127.089H162.1V150.24H185.253V127.089Z" fill="#FFF" fill-opacity="0.1"/>
<path d="M185.253 219.727H162.1V242.878H185.253V219.727Z" fill="#FFF" fill-opacity="0.1"/>
<path d="M277.899 219.727H254.746V242.878H277.899V219.727Z" fill="#FFF" fill-opacity="0.1"/>
<path d="M162.1 242.878L138.946 242.879V266.03H162.099L162.1 242.878Z" fill="#FFF" fill-opacity="0.1"/>
<path d="M138.946 266.063H115.793V289.214H138.946V266.063Z" fill="#FFF" fill-opacity="0.1"/>
<path d="M92.6061 312.362H69.4533V335.513H92.6061V312.362Z" fill="#FFF" fill-opacity="0.1"/>
<path d="M92.6061 266.063H69.4533V289.214H92.6061V266.063Z" fill="#FFF" fill-opacity="0.1"/>
<path d="M138.946 312.362H115.793V335.513H138.946V312.362Z" fill="#FFF" fill-opacity="0.1"/>
<path d="M69.4533 335.513L46.2998 335.514V358.665H69.4529L69.4533 335.513Z" fill="#FFF" fill-opacity="0.1"/>
<path d="M277.899 127.089H254.746V150.24H277.899V127.089Z" fill="#FFF" fill-opacity="0.1"/>
<path d="M301.053 103.938H277.9L277.899 127.089L301.053 127.089V103.938Z" fill="#FFF" fill-opacity="0.1"/>
<path d="M324.206 80.7863H301.053L301.053 103.938L324.206 103.937V80.7863Z" fill="#FFF" fill-opacity="0.1"/>
<path d="M370.546 34.4869H347.393V57.6377H370.546V34.4869Z" fill="#FFF" fill-opacity="0.1"/>
<path d="M324.206 34.4869H301.053V57.6377H324.206V34.4869Z" fill="#FFF" fill-opacity="0.1"/>
<path d="M370.546 80.7863H347.393V103.937H370.546V80.7863Z" fill="#FFF" fill-opacity="0.1"/>
<path d="M393.699 11.3028H370.546V34.4536H393.699V11.3028Z" fill="#FFF" fill-opacity="0.1"/>
<path d="M301.053 242.879L277.899 242.878L277.9 266.03H301.053V242.879Z" fill="#FFF" fill-opacity="0.1"/>
<path d="M324.206 266.063H301.053V289.214H324.206V266.063Z" fill="#FFF" fill-opacity="0.1"/>
<path d="M370.546 312.362H347.393V335.513H370.546V312.362Z" fill="#FFF" fill-opacity="0.1"/>
<path d="M324.206 312.362H301.053V335.513H324.206V312.362Z" fill="#FFF" fill-opacity="0.1"/>
<path d="M370.546 266.063H347.393V289.214H370.546V266.063Z" fill="#FFF" fill-opacity="0.1"/>
<path d="M393.699 335.514L370.546 335.513L370.546 358.665H393.699V335.514Z" fill="#FFF" fill-opacity="0.1"/>
<path d="M162.099 103.938H138.946V127.089L162.1 127.089L162.099 103.938Z" fill="#FFF" fill-opacity="0.1"/>
<path d="M138.946 80.7863H115.793V103.937L138.946 103.938L138.946 80.7863Z" fill="#FFF" fill-opacity="0.1"/>
<path d="M92.6061 34.4869H69.4533V57.6377H92.6061V34.4869Z" fill="#FFF" fill-opacity="0.1"/>
<path d="M92.6061 80.7863H69.4533V103.937H92.6061V80.7863Z" fill="#FFF" fill-opacity="0.1"/>
<path d="M138.946 34.4869H115.793V57.6377H138.946V34.4869Z" fill="#FFF" fill-opacity="0.1"/>
<path d="M69.4529 11.3028H46.2998V34.4536H69.4529V11.3028Z" fill="#FFF" fill-opacity="0.1"/>
<path d="M231.559 127.089H208.407V150.24H231.559V127.089Z" fill="#FFF" fill-opacity="0.1"/>
<path d="M231.559 103.938H208.407V127.089H231.559V103.938Z" fill="#FFF" fill-opacity="0.1"/>
<path d="M231.559 80.7863H208.407V103.938H231.559V80.7863Z" fill="#FFF" fill-opacity="0.1"/>
<path d="M231.559 57.6382H208.407V80.7863H231.559V57.6382Z" fill="#FFF" fill-opacity="0.1"/>
<path d="M231.559 34.4869H208.407V57.6382H231.559V34.4869Z" fill="#FFF" fill-opacity="0.1"/>
<path d="M231.559 -11.8486H208.407V11.3022H231.559V-11.8486Z" fill="#FFF" fill-opacity="0.1"/>
<path d="M231.559 -35H208.407V-11.8486H231.559V-35Z" fill="#FFF" fill-opacity="0.1"/>
<path d="M231.559 266.063H208.407V289.214H231.559V266.063Z" fill="#FFF" fill-opacity="0.1"/>
<path d="M231.559 242.879H208.407V266.03H231.559V242.879Z" fill="#FFF" fill-opacity="0.1"/>
<path d="M231.559 312.362H208.407V335.513H231.559V312.362Z" fill="#FFF" fill-opacity="0.1"/>
<path d="M231.559 358.665H208.407V381.816H231.559V358.665Z" fill="#FFF" fill-opacity="0.1"/>
<path d="M231.559 381.849H208.407V405H231.559V381.849Z" fill="#FFF" fill-opacity="0.1"/>
<path d="M231.559 289.214H208.407V312.362H231.559V289.214Z" fill="#FFF" fill-opacity="0.1"/>
<path d="M231.559 219.727H208.407V242.879H231.559V219.727Z" fill="#FFF" fill-opacity="0.1"/>
<path d="M231.559 196.575H208.407V219.727H231.559V196.575Z" fill="#FFF" fill-opacity="0.1"/>
<path d="M138.946 196.575V173.425H115.793V196.575H138.946Z" fill="#FFF" fill-opacity="0.1"/>
<path d="M162.1 196.576V173.425H138.946V196.575L162.1 196.576Z" fill="#FFF" fill-opacity="0.1"/>
<path d="M92.6067 196.543V173.392H69.4538V196.543H92.6067Z" fill="#FFF" fill-opacity="0.1"/>
<path d="M46.2998 196.575V173.425H23.1469V196.575H46.2998Z" fill="#FFF" fill-opacity="0.1"/>
<path d="M23.1529 196.575V173.425H0V196.575H23.1529Z" fill="#FFF" fill-opacity="0.1"/>
<path d="M115.793 196.575V173.425H92.64V196.576L115.793 196.575Z" fill="#FFF" fill-opacity="0.1"/>
<path d="M185.253 196.575V173.425H162.1V196.576L185.253 196.575Z" fill="#FFF" fill-opacity="0.1"/>
<path d="M208.407 196.543V173.392H185.254V196.543H208.407Z" fill="#FFF" fill-opacity="0.1"/>
<path d="M254.746 196.575V173.425H231.593V196.575H254.746Z" fill="#FFF" fill-opacity="0.1"/>
<path d="M277.9 196.576V173.425H254.746V196.575L277.9 196.576Z" fill="#FFF" fill-opacity="0.1"/>
<path d="M301.053 196.575V173.425H277.9V196.576L301.053 196.575Z" fill="#FFF" fill-opacity="0.1"/>
<path d="M324.207 196.543V173.392H301.054V196.543H324.207Z" fill="#FFF" fill-opacity="0.1"/>
<path d="M347.393 196.543V173.392H324.24V196.543H347.393Z" fill="#FFF" fill-opacity="0.1"/>
<path d="M370.546 196.575V173.425H347.393V196.575H370.546Z" fill="#FFF" fill-opacity="0.1"/>
<path d="M416.853 196.575V173.425H393.7V196.575H416.853Z" fill="#FFF" fill-opacity="0.1"/>
<path d="M440 196.543V173.392H416.847V196.543H440Z" fill="#FFF" fill-opacity="0.1"/>
</svg>
