<svg width="16" height="16" viewBox="0 0 16 16" fill="none" xmlns="http://www.w3.org/2000/svg">
<path d="M15.0007 8.15571C15.0007 7.58016 14.953 7.16016 14.8499 6.72461H8.14355V9.32236H12.08C12.0007 9.96793 11.5721 10.9402 10.6197 11.5935L10.6064 11.6804L12.7268 13.2902L12.8737 13.3046C14.2229 12.0835 15.0007 10.2868 15.0007 8.15571Z" fill="#4285F4"/>
<path d="M8.14315 15.0004C10.0717 15.0004 11.6907 14.3781 12.8733 13.3048L10.6193 11.5936C10.0162 12.0059 9.20662 12.2936 8.14315 12.2936C6.25428 12.2936 4.65113 11.0726 4.07965 9.38477L3.99588 9.39174L1.79104 11.064L1.76221 11.1425C2.93679 13.4292 5.34949 15.0004 8.14315 15.0004Z" fill="#34A853"/>
<path d="M4.07982 9.38399C3.92903 8.94844 3.84176 8.48174 3.84176 7.99954C3.84176 7.51729 3.92903 7.05064 4.07189 6.61509L4.06789 6.52233L1.83542 4.82324L1.76237 4.85729C1.27827 5.80619 1.00049 6.87177 1.00049 7.99954C1.00049 9.12732 1.27827 10.1928 1.76237 11.1417L4.07982 9.38399Z" fill="#FBBC05"/>
<path d="M8.14319 3.70665C9.48444 3.70665 10.3892 4.27442 10.9051 4.7489L12.9209 2.82C11.6829 1.69222 10.0717 1 8.14319 1C5.34951 1 2.9368 2.5711 1.76221 4.85775L4.07173 6.61555C4.65114 4.92777 6.25431 3.70665 8.14319 3.70665Z" fill="#EB4335"/>
</svg>
