<svg width="16" height="16" viewBox="0 0 16 16" fill="none" xmlns="http://www.w3.org/2000/svg">
<path d="M14.1247 6.27521C14.0592 6.31421 12.5003 7.13717 12.5003 8.96187C12.5738 11.0428 14.4675 11.7726 14.5 11.7726C14.4675 11.8116 14.2141 12.7667 13.4634 13.768C12.8677 14.6304 12.2065 15.5 11.2024 15.5C10.2473 15.5 9.90443 14.9252 8.80238 14.9252C7.61888 14.9252 7.28401 15.5 6.37789 15.5C5.3738 15.5 4.66359 14.5839 4.03538 13.7295C3.21923 12.6113 2.52552 10.8565 2.50103 9.17154C2.48453 8.27869 2.66448 7.40103 3.12127 6.65555C3.76599 5.61482 4.91701 4.90833 6.17398 4.88504C7.13707 4.85415 7.99422 5.51404 8.58197 5.51404C9.14524 5.51404 10.1983 4.88504 11.3898 4.88504C11.9041 4.88555 13.2755 5.03292 14.1247 6.27521ZM8.50052 4.70677C8.32909 3.89141 8.80238 3.07604 9.2432 2.55593C9.80647 1.92693 10.6961 1.5 11.4633 1.5C11.5122 2.31537 11.2019 3.11503 10.6471 3.69744C10.1493 4.32644 9.29218 4.79996 8.50052 4.70677Z" fill="white"/>
</svg>
